# xmcd CD database file
#
# Track frame offsets:
#	150
#	19927
#	35467
#	52900
#	74310
#	88722
#	104435
#	117972
#	131777
#	147467
#	163827
#	177372
#	189037
#	212335
#	228750
#	250140
#	268040
#	286940
#
# Disc length: 4035 seconds
#
# Revision: 4
# Processed by: cddbd v1.5.1PL0 Copyright (c) Steve Scherf et al.
# Submitted via: CDex 1.51
#
DISCID=fd0fc112
DTITLE=Various Artist - The Boys Are Back In Town
DYEAR=1992
DGENRE=Rock
TTITLE0=Thin Lizzy - The Boys are Back in Town
TTITLE1=Alice Cooper - Schools Out
TTITLE2=Slade - Cum On Feel the Noize
TTITLE3=Elton John - Saturday Nights Alright for Fighting
TTITLE4=The Sweet - Blockbuster
TTITLE5=Bachman-Turner Overdrive - You Ain't Seen Nothing Yet
TTITLE6=Gary Glitter - I Didn't Know I Loved You
TTITLE7=Sparks - This Town Ain't Big Enough for Both of Us
TTITLE8=Roxy Music - Street Life
TTITLE9=T Rex - 20th Century Boy
TTITLE10=Brian Ferry - Let's Stick Together
TTITLE11=Jo JO Gunne - Run Run Run
TTITLE12=Rod Stewart - Maggie May
TTITLE13=Free - Wishing Well
TTITLE14=Ian Hunter - Once Bitten Twice Shy
TTITLE15=Steve Harley and Cockney Rebel - Make Me Smile (Come Up and See Me)
TTITLE16=Lou Reed - Walk on the Wild Side
TTITLE17=Mott The Hoople - All the Young  Dudes
EXTD=YEAR: 1992
EXTT0=
EXTT1=
EXTT2=
EXTT3=
EXTT4=
EXTT5=
EXTT6=
EXTT7=
EXTT8=
EXTT9=
EXTT10=
EXTT11=
EXTT12=
EXTT13=
EXTT14=
EXTT15=
EXTT16=
EXTT17=
PLAYORDER=
